<svg width="20" height="23" viewBox="0 0 20 23" fill="none" xmlns="http://www.w3.org/2000/svg">
<path fill-rule="evenodd" clip-rule="evenodd" d="M10.8333 3.82585C10.8333 3.29761 10.4602 2.86938 10 2.86938C9.53976 2.86938 9.16667 3.29761 9.16667 3.82585V10.5209H3.33333C2.8731 10.5209 2.5 10.9491 2.5 11.4773C2.5 12.0056 2.8731 12.4338 3.33333 12.4338H9.16667V19.1293C9.16667 19.6575 9.53976 20.0857 10 20.0857C10.4602 20.0857 10.8333 19.6575 10.8333 19.1293V12.4338H16.6667C17.1269 12.4338 17.5 12.0056 17.5 11.4773C17.5 10.9491 17.1269 10.5209 16.6667 10.5209H10.8333V3.82585Z" fill="#005596"/>
</svg>
