<svg width="24" height="24" viewBox="0 0 24 24" fill="none" xmlns="http://www.w3.org/2000/svg">
<path fill-rule="evenodd" clip-rule="evenodd" d="M5.28328 3.80292C6.35356 2.73218 8.08888 2.73254 9.15926 3.80292L10.4091 5.05325C11.4795 6.12331 11.48 7.85963 10.4089 8.92938L9.77296 8.29259L10.4093 8.92898L10.4089 8.92938L9.73255 9.60577C9.18547 10.1528 9.18524 11.0398 9.73271 11.5875L12.4127 14.2675C12.9599 14.8147 13.8471 14.8147 14.3943 14.2675L15.0707 13.5911L15.7075 14.2271L15.0711 13.5907C16.141 12.5199 17.8769 12.5203 18.9468 13.5909L20.197 14.8407C21.2676 15.9112 21.2677 17.6462 20.1971 18.7168L20.1967 18.7172C17.1534 21.761 12.2185 21.761 9.17482 18.7172C8.20387 17.7458 6.26359 15.8055 5.28838 14.8303L5.28283 14.8248C2.2391 11.7811 2.23901 6.84674 5.28283 3.80337L5.28328 3.80292C5.28335 3.80285 5.28321 3.80298 5.28328 3.80292ZM5.28283 3.80337C5.28281 3.80338 5.28285 3.80335 5.28283 3.80337V3.80337ZM7.88638 5.07557C7.51863 4.70796 6.92323 4.70828 6.55625 5.07549L6.5556 5.07614C4.21486 7.41649 4.21473 11.2111 6.5556 13.552C7.5289 14.5253 9.47476 16.4712 10.4477 17.4446C12.7886 19.7853 16.5836 19.7852 18.9239 17.4445L18.9244 17.444C19.292 17.0764 19.292 16.4812 18.9244 16.1136L17.674 14.8636C17.3067 14.4961 16.7108 14.4961 16.3442 14.8631L16.3439 14.8635L15.6671 15.5403C14.417 16.7904 12.39 16.7904 11.1399 15.5403L8.45978 12.8601C7.20998 11.6097 7.20959 9.58319 8.45978 8.333L9.13697 7.65581C9.50395 7.28929 9.50424 6.69366 9.13677 6.32642L7.88638 5.07557C7.88641 5.07561 7.88634 5.07554 7.88638 5.07557Z" fill="#005596"/>
</svg>
